<svg width="53" height="51" viewBox="0 0 53 51" fill="none" xmlns="http://www.w3.org/2000/svg">
<path d="M47.5 15.5H2.5C2.5 15.5 2.5 0.5 25 0.5C47.5 0.5 47.5 15.5 47.5 15.5ZM28.375 35.5H2.5V38C2.5 42.15 5.85 45.5 10 45.5H28.375C27.825 43.925 27.5 42.25 27.5 40.5C27.5 38.75 27.825 37.075 28.375 35.5ZM49.65 27.325C49.947 26.5674 50.0546 25.7487 49.9635 24.9401C49.8724 24.1314 49.5853 23.3572 49.1271 22.6847C48.6689 22.0122 48.0535 21.4617 47.3342 21.081C46.615 20.7003 45.8138 20.5008 45 20.5H22.5L16.25 25.5L10 20.5H5C2.25 20.5 0 22.75 0 25.5C0 28.25 2.25 30.5 5 30.5H31.35C34.1 27.45 38.075 25.5 42.5 25.5C45.1 25.5 47.5 26.15 49.65 27.325ZM45 38V30.5H40V38H32.5V43H40V50.5H45V43H52.5V38H45Z" fill="black"/>
</svg>
