<svg width="61" height="60" viewBox="0 0 61 60" fill="none" xmlns="http://www.w3.org/2000/svg">
<path d="M47.8809 27.5H19.9559L32.1559 15.3C33.1309 14.325 33.1309 12.725 32.1559 11.75C31.9246 11.5183 31.6498 11.3344 31.3474 11.2089C31.045 11.0835 30.7208 11.0189 30.3934 11.0189C30.0659 11.0189 29.7417 11.0835 29.4393 11.2089C29.1369 11.3344 28.8621 11.5183 28.6309 11.75L12.1559 28.225C11.9241 28.4563 11.7402 28.731 11.6148 29.0335C11.4893 29.3359 11.4247 29.6601 11.4247 29.9875C11.4247 30.315 11.4893 30.6392 11.6148 30.9416C11.7402 31.244 11.9241 31.5187 12.1559 31.75L28.6309 48.225C28.8623 48.4565 29.1371 48.6401 29.4395 48.7653C29.7419 48.8906 30.066 48.9551 30.3934 48.9551C30.7207 48.9551 31.0448 48.8906 31.3472 48.7653C31.6496 48.6401 31.9244 48.4565 32.1559 48.225C32.3873 47.9936 32.5709 47.7188 32.6962 47.4164C32.8214 47.114 32.8859 46.7899 32.8859 46.4625C32.8859 46.1352 32.8214 45.8111 32.6962 45.5087C32.5709 45.2063 32.3873 44.9315 32.1559 44.7L19.9559 32.5H47.8809C49.2559 32.5 50.3809 31.375 50.3809 30C50.3809 28.625 49.2559 27.5 47.8809 27.5Z" fill="black"/>
</svg>
