<svg width="46" height="46" viewBox="0 0 46 46" fill="none" xmlns="http://www.w3.org/2000/svg">
<path d="M23.2359 26.6011L26.7584 30.1235C27.1292 30.4634 27.5698 30.6334 28.0803 30.6334C28.5907 30.6334 29.0153 30.4634 29.3539 30.1235C29.7247 29.7527 29.9101 29.3121 29.9101 28.8017C29.9101 28.2912 29.7247 27.8667 29.3539 27.528L25.8315 24.0056L29.3539 20.4831C29.7247 20.1123 29.9101 19.6717 29.9101 19.1612C29.9101 18.6508 29.7247 18.2262 29.3539 17.8876C29.014 17.5168 28.5889 17.3314 28.0784 17.3314C27.568 17.3314 27.128 17.5168 26.7584 17.8876L23.2359 21.41L19.7135 17.8876C19.3736 17.5168 18.9484 17.3314 18.438 17.3314C17.9275 17.3314 17.4875 17.5168 17.118 17.8876C16.7781 18.2275 16.6081 18.6526 16.6081 19.1631C16.6081 19.6735 16.7781 20.1135 17.118 20.4831L20.6404 24.0056L17.118 27.528C16.7781 27.8679 16.6081 28.2931 16.6081 28.8035C16.6081 29.314 16.7781 29.754 17.118 30.1235C17.4888 30.4634 17.9294 30.6334 18.4398 30.6334C18.9503 30.6334 19.3748 30.4634 19.7135 30.1235L23.2359 26.6011ZM13.9663 39.764C12.9466 39.764 12.0734 39.4006 11.3467 38.6739C10.6199 37.9471 10.2572 37.0745 10.2584 36.0561V11.955C9.73314 11.955 9.29252 11.777 8.93657 11.4211C8.58061 11.0651 8.40325 10.6251 8.40449 10.1011C8.40449 9.57578 8.58246 9.13516 8.93842 8.77921C9.29437 8.42325 9.73437 8.24589 10.2584 8.24713H17.6741C17.6741 7.72185 17.8521 7.28123 18.2081 6.92527C18.564 6.56932 19.004 6.39196 19.5281 6.39319H26.9438C27.4691 6.39319 27.9097 6.57117 28.2657 6.92713C28.6216 7.28308 28.799 7.72308 28.7977 8.24713H36.2135C36.7388 8.24713 37.1794 8.42511 37.5353 8.78106C37.8913 9.13702 38.0686 9.57702 38.0674 10.1011C38.0674 10.6263 37.8894 11.067 37.5335 11.4229C37.1775 11.7789 36.7375 11.9562 36.2135 11.955V36.0561C36.2135 37.0758 35.8501 37.949 35.1234 38.6757C34.3966 39.4025 33.524 39.7652 32.5056 39.764H13.9663Z" fill="white"/>
</svg>
