<svg width="53" height="53" viewBox="0 0 53 53" fill="none" xmlns="http://www.w3.org/2000/svg">
<path d="M26.5 0.09375C18.375 0.09375 11.0625 3.75 6.1875 9.64062V2.125H2.125V18.375H18.375V14.3125H7.8125C11.875 8.21875 18.5781 4.15625 26.5 4.15625C38.8906 4.15625 48.8438 14.1094 48.8438 26.5C48.8438 38.8906 38.8906 48.8438 26.5 48.8438C14.1094 48.8438 4.15625 38.8906 4.15625 26.5H0.09375C0.09375 41.125 11.875 52.9062 26.5 52.9062C41.125 52.9062 52.9062 41.125 52.9062 26.5C52.9062 11.875 41.125 0.09375 26.5 0.09375Z" fill="black"/>
<path d="M26.5 0.09375C18.375 0.09375 11.0625 3.75 6.1875 9.64062V2.125H2.125V18.375H18.375V14.3125H7.8125C11.875 8.21875 18.5781 4.15625 26.5 4.15625C38.8906 4.15625 48.8438 14.1094 48.8438 26.5C48.8438 38.8906 38.8906 48.8438 26.5 48.8438C14.1094 48.8438 4.15625 38.8906 4.15625 26.5H0.09375C0.09375 41.125 11.875 52.9062 26.5 52.9062C41.125 52.9062 52.9062 41.125 52.9062 26.5C52.9062 11.875 41.125 0.09375 26.5 0.09375Z" stroke="black"/>
</svg>
